<svg width="600" height="600" xmlns="http://www.w3.org/2000/svg">
 <g>
  <path stroke="#000" fill="#aaaaaa" d="m402.64834,406.28241c-22.60001,-9.78203 -31.62404,-36.66642 -31.62404,-36.66642s-10.18198,6.08947 -10.18198,-11.01288s10.18198,11.01288 20.36396,-55.02122c0,0 28.23004,-8.57277 22.60001,-79.4655l-6.78799,0c0,0 16.95,-75.79454 0,-101.46967c-16.96997,-25.67513 -23.73799,-42.77749 -61.05196,-55.02122s-23.71803,-9.80362 -50.85001,-8.55118c-27.13199,1.23085 -49.75196,17.10236 -49.75196,25.65354c0,0 -16.95,1.23085 -23.71803,8.57277c-6.78799,7.34192 -18.08799,41.54664 -18.08799,50.11941s5.65,66.0341 11.3,78.25624l-6.72809,2.44011c-5.65,70.89273 22.60001,79.4655 22.60001,79.4655c10.16202,66.0341 20.344,37.91886 20.344,55.02122s-10.18198,11.01288 -10.18198,11.01288s-9.02403,26.88438 -31.62404,36.66642c-22.60001,9.76043 -148.05799,62.31996 -158.25993,73.33283c-10.20195,11.03448 -9.044,62.36314 -9.044,62.36314l537.98794,0c0,0 1.17792,-51.32866 -9.02403,-62.36314c-10.22191,-11.01288 -135.67989,-63.5724 -158.2799,-73.33283l0.00001,-0.00001zm-248.95943,-3.71415c-1.9765,-3.8869 -2.95477,-6.69411 -2.95477,-6.69411s-8.62474,5.16094 -8.62474,-9.32856s8.62474,9.32856 17.24947,-46.6212c0,0 23.93764,-7.25555 19.14612,-67.35133l-5.74982,0c0,0 2.85495,-12.76199 4.73163,-28.80624c-0.07986,-6.65092 0.11979,-13.73371 0.73869,-21.50751l0.75866,-9.19899c-0.41926,-10.6242 -2.13622,-20.27666 -6.22898,-26.4741c-14.37456,-21.74504 -20.12439,-36.25614 -51.72846,-46.6212c-31.60407,-10.36506 -20.12439,-8.31365 -43.10372,-7.25555c-22.9993,1.0365 -42.16538,14.48949 -42.16538,21.76664c0,0 -14.37456,1.0365 -20.12439,7.25555c-5.41043,5.85194 -14.07509,31.57026 -15.11325,40.70448l0,6.06788c0.93834,14.1008 5.15088,52.88343 9.36343,62.01764l-5.7099,2.07301c-4.77156,60.09578 19.14612,67.35133 19.14612,67.35133c8.62474,55.94975 17.24947,32.1317 17.24947,46.6212s-8.62474,9.32856 -8.62474,9.32856s-7.64647,22.82473 -26.81255,31.0736c-1.21784,0.51825 -2.77509,1.20926 -4.6318,1.98663l0,113.0224l11.47968,0c-0.57898,-27.59699 1.53728,-63.2053 14.89364,-77.60842c7.10742,-7.66583 30.40619,-20.27666 126.81558,-61.8017l0.00001,0.00001zm445.81106,-195.55423c-0.79859,-8.16249 -2.53551,-15.43963 -5.82968,-20.42782c-14.3546,-21.76664 -20.12439,-36.25614 -51.70849,-46.6212c-31.62404,-10.36506 -20.12439,-8.31365 -43.12369,-7.25555c-22.97933,1.0365 -42.14542,14.48949 -42.14542,21.76664c0,0 -14.3546,1.0365 -20.12439,7.25555c-5.41043,5.87353 -14.15495,31.7862 -15.13322,40.83404l0.65883,0l1.59717,19.71522c0.39929,4.98819 0.43922,9.41493 0.53905,13.92805c1.79682,14.38152 4.19258,29.15175 6.58834,34.31268l-5.7099,2.07301c-4.77156,60.09578 19.16608,67.35133 19.16608,67.35133c8.62474,55.94975 17.22951,32.1317 17.22951,46.6212s-8.62474,9.32856 -8.62474,9.32856s-1.05813,3.06633 -3.25424,7.29874c95.23147,41.02838 118.33059,53.55284 125.35816,61.19708c13.37633,14.40312 15.47262,49.98985 14.89364,77.60842l9.58304,0l0,-114.57715c-0.31943,-0.12956 -0.75866,-0.32391 -1.03816,-0.45347c-19.14612,-8.27046 -26.81255,-31.0736 -26.81255,-31.0736s-8.6447,5.16094 -8.6447,-9.32856s8.6447,9.32856 17.24947,-46.6212c0,0 16.05159,-4.945 19.22598,-39.75434l0,-26.4957c-0.01996,-0.38869 -0.01996,-0.7126 -0.05989,-1.10129l-5.76979,0c0,0 4.2924,-19.21856 5.82968,-40.18622l0,-25.39441l0.05989,0l0.00002,-0.00001z" id="svg_1"/>
 </g>
</svg>
